<svg height="512pt" viewBox="-49 0 512 512" width="512pt" xmlns="http://www.w3.org/2000/svg"><path d="M308.191 107.379c-26.398-26.727-61.609-41.711-99.144-42.2-38.074-.495-74.07 14.036-101.379 40.91-27.293 26.86-42.387 62.602-42.5 100.645a142.003 142.003 0 0048.644 107.43c22.47 19.617 35.356 47.516 35.356 76.531v71.637c0 27.387 22.281 49.668 49.668 49.668h16.668c27.383 0 49.664-22.281 49.664-49.668v-70.719c0-29.843 12.64-57.86 34.684-76.867 31.34-27.02 49.316-66.234 49.316-107.578 0-37.602-14.55-73.043-40.977-99.79zM207.043 279.152h-6.633a6.582 6.582 0 01-6.574-6.578A6.582 6.582 0 01200.41 266a6.642 6.642 0 016.633 6.633zm.125 59.434c5.516 0 10 4.484 10 10v34h-20v-34c0-5.516 4.484-10 10-10zm38 64v14.707h-76v-14.707zm-76 34.707h76V452h-76zM215.5 492h-16.664c-12.977 0-24.024-8.375-28.043-20h72.75c-4.02 11.625-15.066 20-28.043 20zm71.293-192.398c-24.207 20.87-38.969 50.726-41.3 82.984h-8.325v-34c0-8.93-3.926-16.953-10.133-22.453 0-.043.008-.086.008-.133v-32.867c8.144-5.844 13.457-15.39 13.457-26.156v-15.489c0-21.304-17.332-38.64-38.64-38.64h-18.024c-5.524 0-10 4.476-10 10 0 5.523 4.476 10 10 10h18.023c10.282 0 18.641 8.363 18.641 18.64v3.68c-4.887-5.613-12.078-9.168-20.09-9.168-14.652 0-26.574 11.922-26.574 26.578 0 14.652 11.922 26.574 26.574 26.574h6.633v19.438c-16.484.066-29.875 13.496-29.875 29.996v34h-8.277c-2.192-31.832-17.196-61.899-41.922-83.488a121.985 121.985 0 01-41.801-92.301c.098-32.664 13.07-63.367 36.531-86.453 23.473-23.102 54.375-35.594 87.086-35.164 66.38.86 120.383 55.586 120.383 121.988 0 35.523-15.445 69.21-42.375 92.434zm0 0"/><path d="M209.188 113.82h-.157c-5.511-.054-10 4.364-10.066 9.883-.063 5.524 4.41 10.055 9.933 10.117h.273c5.466 0 9.884-4.398 9.946-9.882.067-5.524-4.406-10.051-9.93-10.118zm43.988 11.735a10.002 10.002 0 10-9.73 17.476c23.269 12.957 37.722 37.531 37.722 64.137 0 5.523 4.477 10 10 10s10-4.477 10-10c0-33.856-18.39-65.125-47.992-81.613zM207.168 47c5.523 0 10-4.477 10-10V10c0-5.523-4.477-10-10-10s-10 4.477-10 10v27c0 5.523 4.477 10 10 10zm197.168 150.168h-27c-5.524 0-10 4.477-10 10s4.476 10 10 10h27c5.523 0 10-4.477 10-10s-4.477-10-10-10zm-367.336 0H10c-5.523 0-10 4.477-10 10s4.477 10 10 10h27c5.523 0 10-4.477 10-10s-4.477-10-10-10zm297.566 123.258c-3.906-3.906-10.238-3.906-14.144 0-3.902 3.902-3.902 10.234 0 14.14l19.094 19.094a9.984 9.984 0 007.07 2.93 9.98 9.98 0 007.07-2.93c3.906-3.906 3.906-10.238 0-14.144zM79.77 93.91c1.953 1.953 4.511 2.93 7.07 2.93s5.12-.977 7.07-2.93c3.906-3.902 3.906-10.234 0-14.14L74.82 60.676c-3.906-3.903-10.238-3.903-14.144 0-3.906 3.906-3.903 10.238 0 14.144zm259.746-33.23l-19.09 19.09c-3.906 3.906-3.906 10.238 0 14.144 1.953 1.953 4.512 2.93 7.07 2.93s5.117-.977 7.07-2.93l19.09-19.094c3.906-3.906 3.906-10.238 0-14.144-3.902-3.906-10.234-3.903-14.14.004zM79.77 320.426l-19.09 19.09c-3.907 3.906-3.907 10.238 0 14.144 1.953 1.95 4.511 2.93 7.07 2.93s5.117-.98 7.07-2.93l19.09-19.094c3.906-3.906 3.906-10.238 0-14.14-3.902-3.906-10.234-3.906-14.14 0zm0 0"/></svg>