<svg xmlns="http://www.w3.org/2000/svg" viewBox="0 0 480.03 480.03"><path d="M478.224 272.063a41.803 41.803 0 00-24.624-25.088 40.08 40.08 0 008.664-38.92 43.03 43.03 0 00-39.464-28.04H291.096l.176-.52A247.454 247.454 0 00304 101.071V76.015c-.035-30.913-25.087-55.965-56-56h-16c-13.255 0-24 10.745-24 24v48c-.087 54.283-41.881 99.382-96 103.592v-31.592a8 8 0 00-8-8H8a8 8 0 00-8 8v288a8 8 0 008 8h96a8 8 0 008-8v-27.04l11.544 5.8a201.02 201.02 0 0089.696 21.24H392c22.091-.017 39.987-17.939 39.97-40.03a40 40 0 00-10.034-26.466 40.999 40.999 0 0014.4-9.248c14.044-14.085 15.605-36.349 3.664-52.256a40.111 40.111 0 0028.336-11.744 40.12 40.12 0 009.888-40.208zM96 444.015H16v-272h80v272zm351.434-137.162a23.957 23.957 0 01-7.434 1.161h-64a8 8 0 000 16h32c13.255 0 24 10.745 24 24s-10.745 24-24 24h-48a8 8 0 000 16h32c13.255 0 24 10.745 24 24s-10.745 24-24 24H213.24a185.04 185.04 0 01-82.52-19.536l-18.72-9.4V211.751c62.991-4.291 111.919-56.599 112-119.736v-48a8 8 0 018-8h16c22.08.026 39.974 17.92 40 40v25.056a231.429 231.429 0 01-11.904 73.36l-3.688 11.056A8 8 0 00280 196.015h142.8a27.255 27.255 0 0124.096 16.624c4.074 12.613-2.849 26.141-15.462 30.215a23.957 23.957 0 01-7.434 1.161h-40a8 8 0 000 16h54.8a27.255 27.255 0 0124.096 16.624c4.074 12.613-2.849 26.141-15.462 30.214z"/><path d="M56 388.015c-13.255 0-24 10.745-24 24s10.745 24 24 24 24-10.745 24-24-10.745-24-24-24zm0 32a8 8 0 110-16 8 8 0 010 16z"/></svg>