<svg xmlns="http://www.w3.org/2000/svg" viewBox="0 0 480 480"><path d="M472 160h-40v-56a8 8 0 00-8-8h-24V8a8 8 0 00-8-8H88a8 8 0 00-8 8v88H56a8 8 0 00-8 8v56H8a8 8 0 00-8 8v224a8 8 0 008 8h72v72a8 8 0 008 8h304a8 8 0 008-8v-72h72a8 8 0 008-8V168a8 8 0 00-8-8zm-72-48h16v48h-16v-48zM96 16h288v144H96V16zm-32 96h16v48H64v-48zm16 240h-8v-24h8v24zm304 112H96V328h288v136zm80-80h-64v-16h16a8 8 0 008-8v-40a8 8 0 00-8-8H64a8 8 0 00-8 8v40a8 8 0 008 8h16v16H16V176h448v208zm-64-32v-24h8v24h-8z"/><path d="M176 352h176v16H176zm-48 32h224v16H128zm0 32h176v16H128zm0-64h32v16h-32zm-24-160H40a8 8 0 00-8 8v32a8 8 0 008 8h64a8 8 0 008-8v-32a8 8 0 00-8-8zm-8 32H48v-16h48v16zm32 0h80v16h-80zm96 0h16v16h-16z"/></svg>